<svg xmlns="http://www.w3.org/2000/svg" version="1.1" xmlns:xlink="http://www.w3.org/1999/xlink" xmlns:svgjs="http://svgjs.com/svgjs" width="220.1327900176418" height="208.60581602317222"><svg xmlns="http://www.w3.org/2000/svg" width="220.1327900176418" height="208.60581602317222" style=""><rect id="SvgjsRect1006" width="100%" height="100%" x="0" y="0" fill="none" stroke="none"></rect>
  <title>my vector image</title>
  <g class="currentLayer" style="">
    <title transform="matrix(1,0,0,1,141.567596,101.724548) " stroke-width="0">Layer 1</title>
    <rect fill="#000000" stroke="#000000" stroke-width="2" stroke-linejoin="round" stroke-dashoffset="" fill-rule="nonzero" id="SvgjsRect1005" x="-137.78137111663818" y="-22.55596160888672" width="50.845069885253906" height="126" style="color: rgb(255, 161, 0);" class="" fill-opacity="1" rx="2" ry="2" transform="matrix(1,0,0,1,141.567596,101.724548) "></rect>
    <rect fill="#000000" stroke="#000000" stroke-width="0" stroke-linejoin="round" stroke-dashoffset="" fill-rule="nonzero" x="-71.01168823242188" y="265.01245880126953" width="50.845069885253906" height="113" style="color: rgb(255, 161, 0);" class="" fill-opacity="1" id="SvgjsRect1004" transform="matrix(0,1,-1,0,382.22122148828123,225.25772060742185) " rx="2" ry="2"></rect>
    <path fill="#000000" stroke="#000000" stroke-width="2" stroke-linejoin="round" stroke-dashoffset="" fill-rule="nonzero" marker-start="" marker-mid="" marker-end="" id="SvgjsPath1003" d="M32.624513358398445,170.2201797138672 C71.67251335839845,129.40617971386717 289.5905133583984,248.1191797138672 120.85751335839848,10.301179713867185 C105.42951335839845,-11.44382028613282 169.64151335839847,12.458179713867182 188.49551335839845,31.493179713867193 C207.34951335839844,50.52817971386719 217.94151335839842,76.34417971386719 217.94151335839842,103.26417971386718 C217.94151335839842,159.3211797138672 172.93051335839846,204.76417971386718 117.40651335839846,204.76417971386718 C61.88151335839845,204.76417971386718 -6.423486641601556,211.03417971386716 32.624513358398445,170.2201797138672 zM28.454513358398458,189.35117971386717 L16.638513358398455,158.76417971386718 C16.638513358398455,186.7921797138672 89.64451335839846,154.01417971386718 117.40651335839846,154.01417971386718 C145.16851335839846,154.01417971386718 167.67451335839849,131.2921797138672 167.67451335839849,103.26417971386718 C167.67451335839849,75.23617971386719 145.16851335839846,52.51417971386718 117.40651335839846,52.51417971386718 L126.17051335839847,12.41317971386718 C340.6975133583984,180.70417971386718 105.74251335839844,174.17817971386717 28.454513358398458,189.35117971386717 z" style="color: rgb(255, 161, 0);" class="" fill-opacity="1"></path>
    <polyline fill="#ffffff" stroke="#ffffff" stroke-width="2" stroke-linejoin="round" stroke-dashoffset="" fill-rule="nonzero" marker-start="" marker-mid="" marker-end="" id="SvgjsPolyline1002" points="115.18115234375,3.0400772094726562 115.18115234375,3.2176971435546875 115.18115234375,3.0400772094726562 115.0035400390625,2.6848373413085938 115.0035400390625,2.5072174072265625 115.0035400390625,2.3295974731445312 115.0035400390625,2.1519775390625 115.0035400390625,1.9743576049804688 115.0035400390625,1.7967376708984375 115.0035400390625,1.6191177368164062 115.0035400390625,1.441497802734375 115.0035400390625,1.0862579345703125 115.0035400390625,0.9086380004882812 115.0035400390625,0.73101806640625 115.0035400390625,0.3757781982421875 115.0035400390625,0.19815826416015625 115.0035400390625,0.020538330078125 115.0035400390625,-0.15708160400390625 " style="color: rgb(255, 161, 0);" class=""></polyline>
    <rect fill="#ffa100" stroke="none" stroke-width="2" stroke-linejoin="round" stroke-dashoffset="" fill-rule="nonzero" x="-138.93794164061546" y="-100.90087127685547" width="52.93055725097656" height="52.61079025268555" style="color: rgb(0, 0, 0);" class="" fill-opacity="1" rx="2" ry="2" id="SvgjsRect1001" transform="matrix(1,0,0,1,141.567596,101.724548) "></rect>
    <rect fill="#000000" stroke="none" stroke-width="2" stroke-linejoin="round" stroke-dashoffset="" fill-rule="nonzero" x="-61.789794921875" y="-101.1021957397461" width="46.81713104248047" height="52.86046600341797" style="color: rgb(0, 0, 0);" class="" fill-opacity="1" id="SvgjsRect1000" rx="2" ry="2" transform="matrix(1,0,0,1,141.567596,101.724548) "></rect>
  </g>
</svg><style>@media (prefers-color-scheme: light) { :root { filter: none; } }
</style></svg>