<svg width="19" height="21" viewBox="0 0 19 21" fill="none" xmlns="http://www.w3.org/2000/svg">
<path fill-rule="evenodd" clip-rule="evenodd" d="M0.864367 0C0.386994 0 0 0.427369 0 0.954545C0 1.48172 0.386994 1.90909 0.864367 1.90909H1.91822L4.99902 15.518C4.09084 15.9634 3.45747 16.9682 3.45747 18.1364C3.45747 19.7179 4.61844 21 6.05057 21C7.48269 21 8.64367 19.7179 8.64367 18.1364C8.64367 17.8017 8.59163 17.4804 8.49612 17.1818H12.2487C12.1532 17.4804 12.1011 17.8017 12.1011 18.1364C12.1011 19.7179 13.2621 21 14.6942 21C16.1264 21 17.2873 19.7179 17.2873 18.1364C17.2873 16.5548 16.1264 15.2727 14.6942 15.2727H6.72545L6.29326 13.3636H14.6942C16.4785 13.3636 17.5483 12.1188 18.1419 10.7443C18.7221 9.40103 18.924 7.7957 18.9945 6.62806C19.0925 5.00195 17.8754 3.81818 16.5276 3.81818H4.13235L3.59534 1.44607C3.40294 0.5962 2.71148 0 1.91822 0H0.864367ZM14.6942 11.4545H5.86108L4.56453 5.72727H16.5276C17.0057 5.72727 17.2928 6.11553 17.2695 6.5012C17.2038 7.59074 17.0199 8.90763 16.5817 9.92241C16.1569 10.9058 15.576 11.4545 14.6942 11.4545ZM14.6942 19.085C14.2198 19.085 13.8352 18.6603 13.8352 18.1364C13.8352 17.6124 14.2198 17.1877 14.6942 17.1877C15.1687 17.1877 15.5532 17.6124 15.5532 18.1364C15.5532 18.6603 15.1687 19.085 14.6942 19.085ZM5.19153 18.1364C5.19153 18.6603 5.57613 19.085 6.05057 19.085C6.525 19.085 6.9096 18.6603 6.9096 18.1364C6.9096 17.6124 6.525 17.1877 6.05057 17.1877C5.57613 17.1877 5.19153 17.6124 5.19153 18.1364Z" fill="white"/>
</svg>
