<svg width="33" height="33" viewBox="0 0 33 33" fill="none" xmlns="http://www.w3.org/2000/svg">
<rect width="33" height="33" fill="#1E1E1E"/>
<g id="Home">
<rect x="-113.5" y="-11.5" width="1439" height="3112" fill="#0D1B2A"/>
<g id="Group 3676001">
<g id="Frame 3674923" clip-path="url(#clip0_0_1)">
<g id="Ellipse 596" filter="url(#filter0_f_0_1)">
<path d="M-173.422 241.659C-215.715 161.477 -233.246 87.64 -212.578 76.7387C-191.911 65.8374 -140.872 122 -98.5785 202.182C-56.2853 282.364 -38.7542 356.201 -59.4215 367.102C-80.0889 378.004 -131.128 321.841 -173.422 241.659Z" fill="#4A20F1"/>
</g>
</g>
</g>
<g id="Group 3675750">
<rect id="Rectangle 5" x="-114" y="-12" width="1440" height="60" fill="#0D1B2A"/>
<g id="Group 3674518">
<g id="cleaner-broom-svgrepo-com 1" clip-path="url(#clip1_0_1)">
<g id="Group">
<g id="Group_2">
<path id="Vector" d="M32.3626 19.3051C32.3802 19.1721 32.3901 19.0377 32.3901 18.9024C32.3901 17.1939 31.0022 15.8035 29.2947 15.7993C28.79 14.7593 27.7225 14.0471 26.5013 14.0471C25.8809 14.0471 25.2899 14.2293 24.7914 14.5591C24.2927 14.2293 23.7018 14.0471 23.0815 14.0471C21.8603 14.0471 20.7929 14.7593 20.2881 15.7993C18.5806 15.8035 17.1927 17.1939 17.1927 18.9024C17.1927 19.0382 17.2022 19.1726 17.2193 19.3051H16.7977V21.4573H17.6002L18.9781 33H30.6047L31.9826 21.4574H32.7851V19.3052H32.3626V19.3051ZM28.6942 30.8479H20.8887L19.7677 21.4574H20.3233L21.3731 25.3873H28.2097L29.2596 21.4574H29.8151L28.6942 30.8479ZM22.5509 21.4574H27.032L26.5571 23.235H23.0258L22.5509 21.4574ZM30.1482 19.3051H19.4352C19.3768 19.1806 19.3449 19.0441 19.3449 18.9024C19.3449 18.378 19.7715 17.9515 20.2958 17.9515C20.4193 17.9515 20.5396 17.975 20.6533 18.0212L22.0411 18.5855L22.1327 17.0902C22.1633 16.5906 22.5801 16.1993 23.0814 16.1993C23.4077 16.1993 23.7077 16.3643 23.884 16.6408L24.7914 18.0638L25.6988 16.6408C25.8751 16.3643 26.1751 16.1993 26.5014 16.1993C27.0027 16.1993 27.4195 16.5906 27.4501 17.0902L27.5417 18.5855L28.9295 18.0212C29.0432 17.975 29.1636 17.9515 29.287 17.9515C29.8113 17.9515 30.2379 18.378 30.2379 18.9024C30.2379 19.0446 30.2064 19.1809 30.1482 19.3051Z" fill="#2B961F"/>
</g>
</g>
<g id="Group_3">
<g id="Group_4">
<path id="Vector_2" d="M23.7585 0C22.3124 0 21.1359 1.17653 21.1359 2.62266C21.1359 4.0688 22.3124 5.24532 23.7585 5.24532C25.2047 5.24532 26.3812 4.0688 26.3812 2.62266C26.3811 1.17653 25.2046 0 23.7585 0ZM23.7585 3.09311C23.4991 3.09311 23.2881 2.88202 23.2881 2.62266C23.2881 2.36324 23.4992 2.15222 23.7585 2.15222C24.018 2.15222 24.229 2.3633 24.229 2.62266C24.229 2.88202 24.0179 3.09311 23.7585 3.09311Z" fill="#2B961F"/>
</g>
</g>
<g id="Group_5">
<g id="Group_6">
<path id="Vector_3" d="M28.1416 5.04272C26.6954 5.04272 25.5189 6.21919 25.5189 7.66539C25.5189 9.11152 26.6954 10.288 28.1416 10.288C29.5877 10.288 30.7642 9.11152 30.7642 7.66539C30.7642 6.21925 29.5877 5.04272 28.1416 5.04272ZM28.1416 8.13577C27.8822 8.13577 27.6711 7.92468 27.6711 7.66532C27.6711 7.40596 27.8822 7.19488 28.1416 7.19488C28.401 7.19488 28.612 7.40596 28.612 7.66532C28.612 7.92468 28.401 8.13577 28.1416 8.13577Z" fill="#2B961F"/>
</g>
</g>
<g id="Group_7">
<g id="Group_8">
<path id="Vector_4" d="M22.212 7.95093C20.7659 7.95093 19.5894 9.12746 19.5894 10.5736C19.5894 12.0197 20.7659 13.1963 22.212 13.1963C23.6582 13.1963 24.8347 12.0197 24.8347 10.5736C24.8346 9.12746 23.6581 7.95093 22.212 7.95093ZM22.212 11.0441C21.9526 11.0441 21.7416 10.833 21.7416 10.5737C21.7416 10.3142 21.9527 10.1032 22.212 10.1032C22.4714 10.1032 22.6825 10.3143 22.6825 10.5737C22.6825 10.833 22.4714 11.0441 22.212 11.0441Z" fill="#2B961F"/>
</g>
</g>
<g id="Group_9">
<g id="Group_10">
<path id="Vector_5" d="M14.72 15.9124V11.7478H1.4468V15.9125H0.214844V18.0647H1.4468H7.0073V32.9999H9.15945V18.0647H14.72H15.9519V15.9125H14.72V15.9124ZM12.5679 15.9124H9.15945H7.0073H3.59896V13.9H12.5679V15.9124Z" fill="#2B961F"/>
</g>
</g>
</g>
</g>
</g>
<rect x="-113.5" y="-11.5" width="1439" height="3112" stroke="black"/>
</g>
<defs>
<filter id="filter0_f_0_1" x="-421.252" y="-124.615" width="570.504" height="693.07" filterUnits="userSpaceOnUse" color-interpolation-filters="sRGB">
<feFlood flood-opacity="0" result="BackgroundImageFix"/>
<feBlend mode="normal" in="SourceGraphic" in2="BackgroundImageFix" result="shape"/>
<feGaussianBlur stdDeviation="100" result="effect1_foregroundBlur_0_1"/>
</filter>
<clipPath id="clip0_0_1">
<rect width="347" height="556" fill="white" transform="translate(-112 11)"/>
</clipPath>
<clipPath id="clip1_0_1">
<rect width="33" height="33" fill="white"/>
</clipPath>
</defs>
</svg>
