<svg width="21" height="20" viewBox="0 0 21 20" fill="none" xmlns="http://www.w3.org/2000/svg">
<path id="Vector" d="M7.51081 3.40838C8.84078 1.13613 9.50574 0 10.5 0C11.4942 0 12.1592 1.13612 13.4891 3.40837L13.8332 3.99624C14.2112 4.64194 14.4001 4.9648 14.6948 5.17782C14.9895 5.39084 15.3563 5.46991 16.0903 5.62806L16.7585 5.77204C19.3411 6.32857 20.6325 6.60683 20.9397 7.54774C21.2469 8.48861 20.3666 9.46911 18.6059 11.4299L18.1504 11.9372C17.6501 12.4944 17.3998 12.773 17.2873 13.1177C17.1748 13.4624 17.2126 13.8341 17.2882 14.5776L17.3571 15.2544C17.6233 17.8706 17.7564 19.1787 16.9521 19.7602C16.1477 20.3417 14.9386 19.8115 12.5205 18.7512L11.8949 18.4768C11.2078 18.1755 10.8642 18.0248 10.5 18.0248C10.1357 18.0248 9.79218 18.1755 9.10507 18.4768L8.47948 18.7512C6.06131 19.8115 4.85223 20.3417 4.0479 19.7602C3.24357 19.1787 3.37667 17.8706 3.64287 15.2544L3.71173 14.5776C3.78738 13.8341 3.8252 13.4624 3.71265 13.1177C3.60011 12.773 3.34995 12.4944 2.84961 11.9372L2.3941 11.4299C0.633414 9.46911 -0.246937 8.48861 0.060293 7.54774C0.367523 6.60683 1.65885 6.32857 4.24151 5.77204L4.90968 5.62806C5.64359 5.46991 6.01054 5.39084 6.30518 5.17782C6.59982 4.9648 6.7888 4.64195 7.16674 3.99624L7.51081 3.40838Z" fill="white"/>
</svg>
