<svg width="24" height="24" viewBox="0 0 24 24" fill="none" xmlns="http://www.w3.org/2000/svg">
<path d="M5.97692 7.47705C6.48987 7.47705 6.87692 6.83231 6.87692 5.97705C6.87692 5.12179 6.48987 4.47705 5.97692 4.47705C5.46397 4.47705 5.07692 5.12179 5.07692 5.97705C5.07692 6.83231 5.46397 7.47705 5.97692 7.47705ZM5.97692 5.07705C6.05165 5.07705 6.27692 5.3962 6.27692 5.97705C6.27692 6.5579 6.05165 6.87705 5.97692 6.87705C5.90219 6.87705 5.67692 6.5579 5.67692 5.97705C5.67692 5.3962 5.90219 5.07705 5.97692 5.07705Z" fill="white"/>
<path d="M17.9769 2.67701H5.97692C4.79941 2.67701 3.87692 4.12664 3.87692 5.977V12.877C3.87692 13.1952 4.00335 13.5005 4.22835 13.7256C4.45349 13.9506 4.75872 14.077 5.07692 14.077C5.28826 14.0758 5.49531 14.0182 5.67692 13.9103V14.677C5.67692 15.1057 5.90567 15.5019 6.27692 15.7163C6.64817 15.9305 7.10568 15.9305 7.47692 15.7163C7.84817 15.5018 8.07692 15.1057 8.07692 14.677V12.7103C8.25853 12.8182 8.46559 12.8758 8.67692 12.877C8.99514 12.877 9.30037 12.7506 9.5255 12.5256C9.75049 12.3004 9.87692 11.9952 9.87692 11.677V9.277H17.9769C18.5704 9.277 19.0986 8.9083 19.4769 8.30617V8.977C19.4769 9.29522 19.3505 9.60046 19.1255 9.82558C18.9004 10.0506 18.5951 10.177 18.2769 10.177H13.4769C13.052 10.1778 12.6409 10.3287 12.3166 10.6033C11.9921 10.8777 11.7751 11.2581 11.704 11.677H11.3769C11.2113 11.677 11.0769 11.8113 11.0769 11.977V12.877H10.7769C10.6113 12.877 10.4769 13.0113 10.4769 13.177V20.977C10.4769 21.0566 10.5085 21.1329 10.5648 21.1891C10.621 21.2454 10.6974 21.277 10.7769 21.277H13.1769C13.2565 21.277 13.3328 21.2454 13.3891 21.1891C13.4453 21.1329 13.4769 21.0566 13.4769 20.977V13.177C13.4769 13.0974 13.4453 13.0211 13.3891 12.9649C13.3328 12.9086 13.2565 12.877 13.1769 12.877H12.8769V11.977C12.8769 11.8974 12.8453 11.8211 12.7891 11.7649C12.7328 11.7086 12.6565 11.677 12.5769 11.677H12.3195C12.3858 11.4201 12.5354 11.1926 12.7447 11.0297C12.9542 10.8669 13.2116 10.7779 13.4769 10.777H18.2769C18.7541 10.7765 19.2117 10.5867 19.5492 10.2493C19.8866 9.91181 20.0763 9.45419 20.0769 8.977V5.977C20.0769 4.12664 19.1544 2.677 17.9769 2.677L17.9769 2.67701ZM12.8769 20.677H11.0769V13.477H12.8769V20.677ZM11.6769 12.877V12.277H12.2769V12.877H11.6769ZM5.97692 3.27701C6.78987 3.27701 7.47692 4.51331 7.47692 5.977C7.47692 7.4407 6.78987 8.677 5.97692 8.677C5.16397 8.677 4.47692 7.4407 4.47692 5.977C4.47692 4.51331 5.16397 3.27701 5.97692 3.27701ZM9.27692 11.677C9.27692 11.8914 9.16255 12.0895 8.97692 12.1966C8.7913 12.3038 8.56255 12.3038 8.37692 12.1966C8.1913 12.0895 8.07692 11.8914 8.07692 11.677V10.777H7.47692V14.677C7.47692 14.8914 7.36255 15.0895 7.17692 15.1966C6.9913 15.3038 6.76255 15.3038 6.57692 15.1966C6.3913 15.0895 6.27692 14.8914 6.27692 14.677V12.277H5.67692V12.877C5.67692 13.0914 5.56255 13.2895 5.37692 13.3966C5.1913 13.5038 4.96255 13.5038 4.77692 13.3966C4.5913 13.2895 4.47692 13.0914 4.47692 12.877V8.30603C4.85527 8.90816 5.38347 9.27687 5.97692 9.27687H9.27692V11.677ZM17.9769 8.677H7.19647C7.80425 7.91175 8.11669 6.95346 8.07692 5.977C8.1167 5.00055 7.80425 4.04226 7.19647 3.27701H17.9769C18.7899 3.27701 19.4769 4.51331 19.4769 5.977C19.4769 7.4407 18.7899 8.677 17.9769 8.677Z" fill="white"/>
<path d="M11.6769 19.4771H12.2769V20.077H11.6769V19.4771Z" fill="white"/>
</svg>
