<svg width="20" height="20" viewBox="0 0 20 20" fill="none" xmlns="http://www.w3.org/2000/svg">
<g id="time-line 1" clip-path="url(#clip0_6_732)">
<path id="Vector" d="M10.3332 9.99984V10.4998H10.8332H13.6665V11.1665H9.6665V6.33317H10.3332V9.99984ZM9.99984 17.8332C5.67348 17.8332 2.1665 14.3262 2.1665 9.99984C2.1665 5.67348 5.67348 2.1665 9.99984 2.1665C14.3262 2.1665 17.8332 5.67348 17.8332 9.99984C17.8332 14.3262 14.3262 17.8332 9.99984 17.8332ZM9.99984 17.1665C11.9006 17.1665 13.7234 16.4114 15.0674 15.0674C16.4114 13.7234 17.1665 11.9006 17.1665 9.99984C17.1665 8.09912 16.4114 6.27625 15.0674 4.93224C13.7234 3.58823 11.9006 2.83317 9.99984 2.83317C8.09912 2.83317 6.27625 3.58823 4.93224 4.93224C3.58823 6.27625 2.83317 8.09912 2.83317 9.99984C2.83317 11.9006 3.58823 13.7234 4.93224 15.0674C6.27625 16.4114 8.09912 17.1665 9.99984 17.1665Z" fill="#7B7B7B" stroke="#7B7B7B"/>
</g>
<defs>
<clipPath id="clip0_6_732">
<rect width="20" height="20" fill="white"/>
</clipPath>
</defs>
</svg>
