<svg width="22" height="22" viewBox="0 0 22 22" fill="none" xmlns="http://www.w3.org/2000/svg">
<g id="youtube-line 1" clip-path="url(#clip0_1_489)">
<path id="Vector" d="M17.9723 6.41143C17.9027 6.13827 17.7047 5.93202 17.4782 5.86877C17.0777 5.75602 15.1252 5.49935 11.0002 5.49935C6.87516 5.49935 4.9245 5.75602 4.52025 5.86877C4.29658 5.9311 4.09858 6.13735 4.028 6.41143C3.92808 6.8001 3.66683 8.42902 3.66683 10.9993C3.66683 13.5697 3.92808 15.1977 4.028 15.5882C4.09766 15.8604 4.29566 16.0667 4.52116 16.129C4.9245 16.2427 6.87516 16.4993 11.0002 16.4993C15.1252 16.4993 17.0767 16.2427 17.4801 16.1299C17.7037 16.0676 17.9017 15.8613 17.9723 15.5873C18.0722 15.1986 18.3335 13.566 18.3335 10.9993C18.3335 8.43268 18.0722 6.80102 17.9723 6.41143ZM19.7479 5.95585C20.1668 7.58935 20.1668 10.9993 20.1668 10.9993C20.1668 10.9993 20.1668 14.4093 19.7479 16.0428C19.5151 16.9458 18.834 17.6562 17.9714 17.8963C16.4048 18.3327 11.0002 18.3327 11.0002 18.3327C11.0002 18.3327 5.59825 18.3327 4.02891 17.8963C3.16266 17.6525 2.4825 16.943 2.25241 16.0428C1.8335 14.4093 1.8335 10.9993 1.8335 10.9993C1.8335 10.9993 1.8335 7.58935 2.25241 5.95585C2.48525 5.05293 3.16633 4.34252 4.02891 4.10235C5.59825 3.66602 11.0002 3.66602 11.0002 3.66602C11.0002 3.66602 16.4048 3.66602 17.9714 4.10235C18.8377 4.34618 19.5178 5.05568 19.7479 5.95585ZM9.16683 14.2077V7.79102L14.6668 10.9993L9.16683 14.2077Z" fill="white"/>
</g>
<defs>
<clipPath id="clip0_1_489">
<rect width="22" height="22" fill="white"/>
</clipPath>
</defs>
</svg>
